<?xml version="1.0" encoding="UTF-8"?>
<svg width="148px" height="25px" viewBox="0 0 148 25" version="1.1" xmlns="http://www.w3.org/2000/svg" xmlns:xlink="http://www.w3.org/1999/xlink">
    <defs>
        <path d="M137.773257,24.9556248 C143.58417,24.9556248 147.997065,20.4352452 147.997065,14.8590743 C147.997065,9.28290344 143.58417,4.76252382 137.773257,4.76252382 C131.962344,4.76252382 127.549449,9.28290344 127.549449,14.8590743 C127.549449,20.4352452 131.962344,24.9556248 137.773257,24.9556248 Z M137.782563,20.7646038 C141.181399,20.7646038 143.648224,18.1206082 143.648224,14.8590743 C143.648224,11.5975404 141.181399,8.95354477 137.782563,8.95354477 C134.383727,8.95354477 131.916901,11.5975404 131.916901,14.8590743 C131.916901,18.1206082 134.383727,20.7646038 137.782563,20.7646038 Z" id="path-1"></path>
        <linearGradient x1="29.4780914%" y1="5.69295941%" x2="76.5848372%" y2="76.1758114%" id="linearGradient-3">
            <stop stop-color="#16A2BD" offset="0%"></stop>
            <stop stop-color="#20C2E0" stop-opacity="0" offset="100%"></stop>
        </linearGradient>
    </defs>
    <g id="Symbols" stroke="none" stroke-width="1" fill="none" fill-rule="evenodd">
        <g id="Artboard" transform="translate(-1.000000, 0.000000)">
            <g id="Navigation/Logo/dark">
                <g id="dark" transform="translate(1.000000, 0.000000)">
                    <mask id="mask-2" fill="white">
                        <use xlink:href="#path-1"></use>
                    </mask>
                    <use id="a" fill="#223254" xlink:href="#path-1"></use>
                    <rect id="aI" fill="#223254" x="143.828134" y="5.04827524" width="4.16893141" height="19.5263476"></rect>
                    <polygon id="v" fill="#223254" points="123.586979 5.04827524 118.334125 18.9700849 118.292436 18.9700849 112.956204 5.04827524 107.995176 5.04827524 116.082902 24.5708129 120.543659 24.5708129 128.589697 5.04827524"></polygon>
                    <g id="o-new" transform="translate(87.746080, 3.143266)">
                        <path d="M10.5145126,17.8010965 C7.00839177,17.8010965 4.16611819,15.0769917 4.16611819,11.7166425 C4.16611819,8.35631644 7.00839177,5.63221167 10.5144645,5.63218856 L10.5144645,5.63221167 L10.5150664,5.63221167 C10.7083554,5.63221167 10.8995016,5.64099128 11.0884087,5.65721045 C11.127341,5.66099954 11.1675012,5.66529693 11.2088171,5.67024124 C11.2330866,5.67315237 11.2637846,5.6760173 11.3003814,5.67858187 C14.4356463,6.04961277 16.862907,8.61136409 16.862907,11.7166425 C16.862907,15.0769917 14.0206334,17.8010965 10.5145126,17.8010965 M17.0169508,3.79697301 C18.7844332,2.22740994 19.0559721,0.0231042345 19.0559721,0.0231042345 C19.0559721,0.0231042345 17.4785524,1.66133309 14.9013891,1.66133309 C12.8646551,1.66133309 11.3074841,1.64756296 10.7438688,1.64178691 C10.6675933,1.64023892 10.5911733,1.63926854 10.5145126,1.63926854 C4.70751051,1.63926854 2.40773396e-06,6.15106346 2.40773396e-06,11.7166425 C2.40773396e-06,17.2822216 4.70751051,21.7940165 10.5145126,21.7940165 C16.3215147,21.7940165 21.0290228,17.2822216 21.0290228,11.7166425 C21.0290228,8.50383698 19.4602948,5.64226201 17.0169508,3.79697301" id="Fill-1" fill="#20C2E0"></path>
                        <path d="M17.0168954,3.7970169 C16.7053167,4.07369011 16.3476309,4.33079404 15.9363499,4.55245606 C13.8353548,5.6848177 11.8601612,5.71806469 11.2994833,5.67853335 C13.571978,5.94718939 15.472461,7.36675977 16.3466196,9.31019556 L20.0845044,7.53669141 C19.3843251,6.06652276 18.3261711,4.78587814 17.0168954,3.7970169" id="Fill-8" fill="url(#linearGradient-3)"></path>
                    </g>
                    <path d="M71.6004085,7.13426064 L71.6004085,5.04256022 L66.9014231,5.04256022 L66.9014231,24.5650978 L71.5706263,24.5650978 L71.5706263,14.7638238 C71.5706263,10.9233246 73.655092,8.80304902 76.8234798,8.80304902 C79.6166639,8.80304902 81.2425471,10.1232206 81.2425471,14.2437562 L81.2425471,24.5650978 L85.9117503,24.5650978 L85.9117503,13.0836054 C85.9117503,7.20284102 82.9101197,4.76252382 78.4493631,4.76252382 C75.8229363,4.76252382 73.3096704,5.17400584 71.6004085,7.13426064 Z" id="n" fill="#223254"></path>
                    <path d="M54.5931494,24.8603743 C48.7822364,24.8603743 44.0715606,20.3399947 44.0715606,14.7638238 C44.0715606,9.18765297 48.7822364,4.66727334 54.5931494,4.66727334 C60.4040624,4.66727334 65.1147382,9.18765297 65.1147382,14.7638238 C65.1147382,20.3399947 60.4040624,24.8603743 54.5931494,24.8603743 Z M54.5931494,20.6693534 C57.9919853,20.6693534 60.7472862,18.0253577 60.7472862,14.7638238 C60.7472862,11.5022899 57.9919853,8.8582943 54.5931494,8.8582943 C51.1943135,8.8582943 48.4390126,11.5022899 48.4390126,14.7638238 C48.4390126,18.0253577 51.1943135,20.6693534 54.5931494,20.6693534 Z" id="o" fill="#223254"></path>
                    <path d="M32.6566294,5.05589546 L35.0587279,5.05589528 L35.0587279,0.480062401 L39.7279311,0 L39.7279311,5.05589528 L43.7479727,5.05589546 L43.7479727,8.85638961 L39.7279311,8.85638929 L39.7279311,17.9775749 C39.7279311,19.9778349 40.3532708,20.6979285 41.6873289,20.6979285 C42.4794259,20.6979285 43.1007952,20.5245726 43.1007952,20.5245726 L44.0120044,24.3098266 C44.0120044,24.3098266 43.3965908,24.8984745 40.7284747,24.8984745 C37.2265723,24.8984745 35.0587279,22.7781989 35.0587279,18.4176321 L35.0587279,8.85638929 L32.6566294,8.85638961 L28.2137396,8.85638929 L28.2137396,17.9775749 C28.2137396,19.9778349 28.8390793,20.6979285 30.1731374,20.6979285 C30.9652343,20.6979285 31.5866036,20.5245726 31.5866036,20.5245726 L32.4978129,24.3098266 C32.4978129,24.3098266 31.8823993,24.8984745 29.2142832,24.8984745 C25.7123808,24.8984745 23.5445364,22.7781989 23.5445364,18.4176321 L23.5445364,8.85638929 L21.0431776,8.85638929 L21.0431776,5.05589528 L23.5445364,5.05589528 L23.5445364,0.480062401 L28.2137396,0 L28.2137396,5.05589528 L32.6566294,5.05589546 Z" id="Combined-Shape" fill="#223254"></path>
                    <path d="M10.5215888,24.8603743 C4.71067576,24.8603743 0,20.3399947 0,14.7638238 C0,9.18765297 4.71067576,4.66727334 10.5215888,4.66727334 C16.3325018,4.66727334 21.0431776,9.18765297 21.0431776,14.7638238 C21.0431776,20.3399947 16.3325018,24.8603743 10.5215888,24.8603743 Z M10.5215888,20.6693534 C13.9204247,20.6693534 16.6757256,18.0253577 16.6757256,14.7638238 C16.6757256,11.5022899 13.9204247,8.8582943 10.5215888,8.8582943 C7.12275287,8.8582943 4.36745195,11.5022899 4.36745195,14.7638238 C4.36745195,18.0253577 7.12275287,20.6693534 10.5215888,20.6693534 Z" id="o" fill="#223254"></path>
                </g>
            </g>
        </g>
    </g>
</svg>